<?xml version="1.0" encoding="utf-8"?> <!-- Generator: IcoMoon.io --> <!DOCTYPE svg PUBLIC "-//W3C//DTD SVG 1.1//EN" "http://www.w3.org/Graphics/SVG/1.1/DTD/svg11.dtd"> <svg width="512" height="512" viewBox="0 0 512 512" xmlns="http://www.w3.org/2000/svg" xmlns:xlink="http://www.w3.org/1999/xlink" fill="#000000"><path d="M 154.007,272.00A101.993,101.993 10080.00 1,0 357.993,272A101.993,101.993 10080.00 1,0 154.007,272zM 480.00,128.00L 368.00,128.00 c-8.00-32.00-16.00-64.00-48.00-64.00L 192.00,64.00 c-32.00,0.00-40.00,32.00-48.00,64.00L 32.00,128.00 c-17.60,0.00-32.00,14.40-32.00,32.00l0.00,256.00 c0.00,17.60, 14.40,32.00, 32.00,32.00l 448.00,0.00 c 17.60,0.00, 32.00-14.40, 32.00-32.00L 512.00,160.00 C 512.00,142.40, 497.60,128.00, 480.00,128.00z M 256.00,416.00c-79.529,0.00-144.00-64.471-144.00-144.00c0.00-79.529, 64.471-144.00, 144.00-144.00 c 79.529,0.00, 144.00,64.471, 144.00,144.00C 400.00,351.529, 335.53,416.00, 256.00,416.00z M 480.00,192.00l-64.00,0.00 l0.00-32.00 l 64.00,0.00 L 480.00,192.00 z" ></path></svg>