<?xml version="1.0" encoding="utf-8"?>
<!-- Generator: Adobe Illustrator 15.0.0, SVG Export Plug-In . SVG Version: 6.00 Build 0)  -->
<!DOCTYPE svg PUBLIC "-//W3C//DTD SVG 1.1//EN" "http://www.w3.org/Graphics/SVG/1.1/DTD/svg11.dtd">
<svg version="1.1" id="Layer_1" xmlns="http://www.w3.org/2000/svg" xmlns:xlink="http://www.w3.org/1999/xlink" x="0px" y="0px"
	 width="512px" height="512px" viewBox="0 0 512 512" enable-background="new 0 0 512 512" xml:space="preserve">
<path fill="#FFFFFF" d="M154.007,272c0,56.329,45.664,101.993,101.993,101.993S357.993,328.329,357.993,272
	S312.329,170.007,256,170.007S154.007,215.671,154.007,272z M480,128H368c-8-32-16-64-48-64H192c-32,0-40,32-48,64H32
	c-17.6,0-32,14.4-32,32v256c0,17.6,14.4,32,32,32h448c17.6,0,32-14.4,32-32V160C512,142.4,497.6,128,480,128z M256,416
	c-79.529,0-144-64.471-144-144c0-79.529,64.471-144,144-144c79.529,0,144,64.471,144,144C400,351.529,335.53,416,256,416z M480,192
	h-64v-32h64V192z"/>
</svg>
